<svg width="64" height="64" viewBox="0 0 64 64" xmlns="http://www.w3.org/2000/svg">
  <defs>
    <radialGradient id="bgGrad" cx="50%" cy="40%" r="60%">
      <stop offset="0%" stop-color="#7A1015"/>
      <stop offset="100%" stop-color="#2A0608"/>
    </radialGradient>

    <radialGradient id="crownGrad" cx="50%" cy="25%" r="70%">
      <stop offset="0%" stop-color="#E8BE5A"/>
      <stop offset="55%" stop-color="#C8972A"/>
      <stop offset="100%" stop-color="#8B6018"/>
    </radialGradient>

    <radialGradient id="circleGrad" cx="50%" cy="50%" r="50%">
      <stop offset="0%" stop-color="#7A1015"/>
      <stop offset="100%" stop-color="#2A0608"/>
    </radialGradient>
  </defs>

  <rect width="64" height="64" rx="13" fill="url(#bgGrad)"/>

  <circle cx="32" cy="37" r="19" fill="none" stroke="#C8972A" stroke-width="1.2"/>
  <circle cx="32" cy="37" r="16.5" fill="url(#circleGrad)" stroke="#8B6018" stroke-width="0.6"/>

  <circle cx="32" cy="19.2" r="0.7" fill="#C8972A" opacity="0.7"/>
  <circle cx="38.8" cy="20.6" r="0.7" fill="#C8972A" opacity="0.7"/>
  <circle cx="44.6" cy="24.4" r="0.7" fill="#C8972A" opacity="0.7"/>
  <circle cx="48.4" cy="30.2" r="0.7" fill="#C8972A" opacity="0.7"/>
  <circle cx="49.8" cy="37" r="0.7" fill="#C8972A" opacity="0.7"/>
  <circle cx="48.4" cy="43.8" r="0.7" fill="#C8972A" opacity="0.7"/>
  <circle cx="44.6" cy="49.6" r="0.7" fill="#C8972A" opacity="0.7"/>
  <circle cx="38.8" cy="53.4" r="0.7" fill="#C8972A" opacity="0.7"/>
  <circle cx="32" cy="54.8" r="0.7" fill="#C8972A" opacity="0.7"/>
  <circle cx="25.2" cy="53.4" r="0.7" fill="#C8972A" opacity="0.7"/>
  <circle cx="19.4" cy="49.6" r="0.7" fill="#C8972A" opacity="0.7"/>
  <circle cx="15.6" cy="43.8" r="0.7" fill="#C8972A" opacity="0.7"/>
  <circle cx="14.2" cy="37" r="0.7" fill="#C8972A" opacity="0.7"/>
  <circle cx="15.6" cy="30.2" r="0.7" fill="#C8972A" opacity="0.7"/>
  <circle cx="19.4" cy="24.4" r="0.7" fill="#C8972A" opacity="0.7"/>
  <circle cx="25.2" cy="20.6" r="0.7" fill="#C8972A" opacity="0.7"/>

  <ellipse cx="32" cy="40" rx="9" ry="2.5" fill="#8B6018" opacity="0.5"/>
  <path d="M23 40 Q23 30 32 30 Q41 30 41 40 Z" fill="none" stroke="#C8972A" stroke-width="0.9" opacity="0.8"/>
  <circle cx="32" cy="30" r="1.2" fill="#C8972A" opacity="0.9"/>

  <text x="32" y="38" text-anchor="middle" font-size="5.5" font-family="Georgia, serif" font-style="italic" fill="#E8BE5A" opacity="0.9" letter-spacing="0.5">SP</text>

  <path d="M12 36.5 L14.5 34 L14.5 39.5 Z" fill="#8B6018"/>
  <rect x="14" y="34" width="36" height="5.5" rx="1" fill="#C8972A"/>
  <rect x="14" y="34" width="36" height="1.8" rx="1" fill="#E8BE5A" opacity="0.35"/>
  <path d="M50 36.5 L50 34 L52 36.5 L50 39.5 Z" fill="#8B6018"/>

  <text x="32" y="38.2" text-anchor="middle" font-size="3.6" font-family="Georgia, serif" font-weight="bold" fill="#2A0608" letter-spacing="0.4">SHAHI PALACE</text>

  <rect x="19" y="19" width="26" height="5" rx="1.5" fill="url(#crownGrad)"/>
  <rect x="19" y="19" width="26" height="1.8" rx="1.5" fill="#F5DFA0" opacity="0.22"/>

  <rect x="20" y="11" width="4" height="9" rx="1.2" fill="url(#crownGrad)"/>
  <rect x="30" y="7.5" width="4" height="12" rx="1.2" fill="url(#crownGrad)"/>
  <rect x="40" y="11" width="4" height="9" rx="1.2" fill="url(#crownGrad)"/>

  <circle cx="22" cy="10.5" r="2.4" fill="#C8972A" stroke="#E8BE5A" stroke-width="0.6"/>
  <circle cx="32" cy="7" r="2.8" fill="#C8972A" stroke="#E8BE5A" stroke-width="0.7"/>
  <circle cx="42" cy="10.5" r="2.4" fill="#C8972A" stroke="#E8BE5A" stroke-width="0.6"/>

  <circle cx="31.1" cy="6.1" r="0.8" fill="#F5DFA0" opacity="0.75"/>
  <circle cx="21.2" cy="9.7" r="0.6" fill="#F5DFA0" opacity="0.65"/>
  <circle cx="41.2" cy="9.7" r="0.6" fill="#F5DFA0" opacity="0.65"/>

  <text x="24" y="59" text-anchor="middle" font-size="5" fill="#C8972A" opacity="0.85">★</text>
  <text x="32" y="59" text-anchor="middle" font-size="5" fill="#C8972A" opacity="0.85">★</text>
  <text x="40" y="59" text-anchor="middle" font-size="5" fill="#C8972A" opacity="0.85">★</text>
</svg>